<?xml version="1.0" encoding="utf-8"?>
<!-- Generator: Adobe Illustrator 24.0.0, SVG Export Plug-In . SVG Version: 6.00 Build 0)  -->
<svg version="1.1" xmlns="http://www.w3.org/2000/svg" xmlns:xlink="http://www.w3.org/1999/xlink" x="0px" y="0px"
	 viewBox="0 0 64 64" enable-background="new 0 0 64 64" xml:space="preserve">
<g id="Captions">
</g>
<g id="Icons">
	<g>
		<g>
			<polygon fill="#BE7800" points="4,20 28,40 52,20 			"/>
		</g>
		<g>
			<path fill="#F0F0F0" d="M38,34h6.111c0.927,0,1.854-0.219,2.684-0.634L48,32.764V12l-8-8H8v36h30V34z"/>
		</g>
		<g>
			<rect x="8" y="4" fill="#D2D2D2" width="4" height="36"/>
		</g>
		<g>
			<path fill="#FAB400" d="M38,49.471V34h6.109c0.932,0,1.852-0.217,2.686-0.634L50,31.764l2,1V20L29.28,38.933
				c-0.742,0.618-1.819,0.618-2.561,0L4,20v32h34.331C38.115,51.182,38,50.333,38,49.471z"/>
		</g>
		<g>
			<polygon fill="#D2D2D2" points="48,12 40,4 40,12 			"/>
		</g>
		<g>
			<polygon fill="#DC9600" points="4,20 4,52 8,52 8,23.333 			"/>
		</g>
		<g>
			<polygon fill="#BE7800" points="21.455,34.545 4,52 8,52 23.636,36.364 			"/>
		</g>
		<g>
			<polygon fill="#BE7800" points="38,38 34.545,34.545 32.364,36.364 38,42 			"/>
		</g>
		<g>
			<path fill="#3CC8B4" d="M40,36h4.111c1.242,0,2.467-0.289,3.578-0.845L50,34l2.311,1.155C53.422,35.711,54.647,36,55.889,36H60
				v13.47c0,2.81-1.474,5.414-3.884,6.86L50,60l-6.116-3.67C41.474,54.885,40,52.281,40,49.47V36z"/>
		</g>
		<g>
			<path fill="#1EAA96" d="M45.884,56.33C43.474,54.885,42,52.281,42,49.47V36h-2v13.47c0,2.81,1.474,5.414,3.884,6.86L50,60l1-0.6
				L45.884,56.33z"/>
		</g>
		<g>
			<path fill="#FAB400" d="M54,54h-8c-1.105,0-2-0.895-2-2v-6c0-1.105,0.895-2,2-2h8c1.105,0,2,0.895,2,2v6
				C56,53.105,55.105,54,54,54z"/>
		</g>
		<g>
			<path fill="#DC9600" d="M46,52v-6c0-1.105,0.895-2,2-2h-2c-1.105,0-2,0.895-2,2v6c0,1.105,0.895,2,2,2h2
				C46.895,54,46,53.105,46,52z"/>
		</g>
		<g>
			<path fill="#505050" d="M47,44v-3c0-1.105,0.895-2,2-2h2c1.105,0,2,0.895,2,2v3h1v-3c0-1.657-1.343-3-3-3h-2
				c-1.657,0-3,1.343-3,3v3H47z"/>
		</g>
		<g>
			<path fill="#BE7800" d="M52,48c0-1.105-0.895-2-2-2s-2,0.895-2,2c0,0.738,0.405,1.376,1,1.723V51c0,0.552,0.448,1,1,1
				s1-0.448,1-1v-1.277C51.595,49.376,52,48.738,52,48z"/>
		</g>
		<g>
			<rect x="16" y="16" fill="#505050" width="24" height="2"/>
		</g>
		<g>
			<rect x="16" y="20" fill="#505050" width="24" height="2"/>
		</g>
		<g>
			<rect x="16" y="24" fill="#505050" width="24" height="2"/>
		</g>
	</g>
</g>
</svg>
