<?xml version="1.0" standalone="no"?>
<!DOCTYPE svg PUBLIC "-//W3C//DTD SVG 20010904//EN"
 "http://www.w3.org/TR/2001/REC-SVG-20010904/DTD/svg10.dtd">
<svg version="1.0" xmlns="http://www.w3.org/2000/svg"
 width="1170.000000pt" height="1170.000000pt" viewBox="0 0 1170.000000 1170.000000"
 preserveAspectRatio="xMidYMid meet">

<g transform="translate(0.000000,1170.000000) scale(0.100000,-0.100000)"
fill="#000000" stroke="none">
<path d="M0 5850 l0 -5850 5850 0 5850 0 0 5850 0 5850 -5850 0 -5850 0 0
-5850z m6174 2289 c80 -22 141 -58 183 -107 55 -65 74 -112 80 -204 3 -43 9
-78 12 -78 4 0 15 6 26 14 82 55 239 60 336 10 70 -36 140 -116 163 -185 28
-87 17 -222 -24 -298 -10 -19 -8 -21 21 -21 17 0 60 -14 95 -31 141 -70 205
-221 158 -378 -15 -53 -73 -121 -138 -165 l-29 -19 29 -15 c53 -27 113 -94
135 -152 46 -119 19 -251 -68 -331 -66 -61 -123 -83 -214 -83 l-76 -1 8 -30
c5 -16 9 -59 9 -95 0 -88 -35 -157 -112 -221 -49 -40 -66 -49 -129 -60 -64
-11 -80 -11 -138 4 -38 10 -76 28 -91 42 -15 14 -30 25 -36 25 -5 0 -18 -21
-28 -47 -24 -58 -77 -110 -149 -146 -47 -24 -64 -28 -128 -25 l-74 3 -3 240
c-4 294 2 365 29 365 37 0 151 50 217 96 130 91 228 232 258 374 30 141 -1
355 -63 437 -14 18 -22 37 -17 44 4 7 3 9 -3 6 -10 -7 -28 20 -25 36 1 4 -2 7
-6 7 -5 0 -24 15 -43 33 -70 65 -124 107 -139 108 -8 0 8 9 37 19 28 10 69 30
90 44 21 14 41 26 46 26 17 0 135 91 180 139 75 80 62 136 -40 181 -26 11 -54
27 -63 34 -13 11 -61 26 -255 82 -76 22 -325 31 -410 15 -160 -30 -317 -104
-369 -174 l-20 -27 22 -22 22 -22 47 50 c40 43 62 56 135 82 222 80 559 52
793 -65 96 -48 101 -54 72 -84 -78 -79 -217 -161 -312 -186 -46 -12 -86 -14
-168 -9 -137 8 -194 21 -286 62 -86 40 -117 43 -126 14 -12 -37 19 -65 99 -94
42 -16 78 -31 81 -36 13 -20 -114 -90 -165 -90 -51 0 -99 16 -152 49 l-46 29
-33 -34 c-37 -38 -96 -59 -144 -50 -19 4 -50 24 -77 51 -39 38 -48 42 -58 30
-26 -31 -99 -65 -141 -65 -47 0 -118 46 -140 90 -7 15 -13 20 -16 12 -16 -43
-141 -57 -187 -21 -80 63 -74 171 12 229 40 27 53 31 90 26 26 -4 41 -2 37 4
-3 5 -6 42 -6 82 0 61 4 82 28 128 57 110 148 165 268 163 63 0 139 -27 164
-57 21 -25 27 -20 51 39 25 61 86 120 155 150 54 23 177 24 228 2 55 -24 115
-74 144 -121 l26 -40 22 49 c25 58 78 108 144 137 86 38 132 44 195 27z
m-1369 -909 c28 -31 104 -62 155 -64 27 -1 66 8 98 22 l54 23 41 -27 c58 -39
165 -47 208 -15 34 25 79 44 79 33 0 -5 -16 -26 -36 -48 -33 -36 -54 -70 -96
-149 -24 -45 -46 -139 -54 -220 -12 -150 49 -322 156 -438 68 -74 181 -150
257 -173 32 -10 62 -21 66 -24 4 -4 7 -37 5 -74 l-3 -68 -45 33 c-65 47 -145
69 -251 69 -151 0 -271 -34 -487 -136 -39 -19 -116 -48 -170 -65 -85 -27 -107
-30 -182 -26 -63 4 -100 12 -145 32 -65 29 -125 70 -125 86 0 5 21 9 48 9 71
0 158 25 246 69 91 46 126 76 126 107 0 44 -24 48 -82 12 -138 -87 -237 -117
-342 -104 -100 13 -162 93 -137 176 14 46 76 112 133 141 58 29 78 48 78 75 0
63 -106 21 -223 -89 -16 -15 -31 -26 -33 -24 -3 2 -10 29 -16 60 -10 49 -9 67
7 129 35 138 43 149 261 363 268 264 273 268 318 299 47 31 67 33 91 6z m1476
-107 c13 -16 12 -17 -3 -4 -10 7 -18 15 -18 17 0 8 8 3 21 -13z m-240 -72 c62
-28 111 -76 149 -146 28 -50 34 -73 38 -142 4 -78 3 -85 -33 -158 -29 -60 -47
-84 -88 -114 -79 -59 -116 -74 -192 -79 -124 -8 -225 31 -303 117 -39 42 -81
136 -88 193 -6 54 15 165 34 177 5 3 16 20 25 37 19 37 93 99 144 121 82 35
229 32 314 -6z m292 -8 c-3 -7 2 -16 11 -19 9 -3 16 -10 16 -16 0 -5 -6 -6
-12 -2 -7 4 -10 4 -6 0 3 -4 9 -7 13 -6 12 2 36 -31 51 -72 9 -24 19 -89 21
-148 6 -124 -11 -208 -57 -283 -17 -27 -30 -51 -30 -54 0 -12 -84 -99 -118
-122 -20 -13 -39 -28 -42 -32 -9 -13 -98 -50 -169 -70 -194 -56 -417 16 -565
182 -60 67 -99 150 -120 254 -14 72 -15 88 -2 160 8 44 20 95 25 113 12 40 56
118 73 128 7 5 8 3 3 -6 -6 -9 -4 -11 4 -6 7 5 10 14 7 22 -3 8 1 14 10 14 8
0 12 -4 9 -10 -3 -6 1 -7 9 -4 9 3 16 1 16 -5 0 -6 7 -8 15 -5 8 4 15 1 15 -6
0 -6 5 -8 10 -5 6 4 7 12 3 18 -4 7 0 7 10 -1 9 -8 21 -11 27 -7 6 4 -9 -19
-33 -51 -59 -78 -79 -144 -79 -253 1 -106 17 -162 71 -238 87 -124 205 -183
364 -183 173 0 318 92 388 245 51 111 51 250 1 354 -13 27 -16 45 -10 61 6 18
4 28 -9 39 -16 15 -16 15 -4 -2 8 -9 12 -20 9 -23 -3 -2 -13 7 -22 20 -9 14
-12 28 -7 31 5 3 12 1 16 -5 4 -6 13 -5 25 2 13 9 16 16 9 24 -6 7 4 5 25 -4
21 -9 32 -20 29 -29z m-415 -1950 l2 -1031 -26 -21 c-33 -26 -45 -26 -78 0
l-26 21 0 836 c1 461 4 926 7 1035 l6 198 56 -3 56 -3 3 -1032z m-363 918 c0
-2 11 -4 24 -7 41 -7 116 -79 129 -122 7 -23 12 -107 12 -205 0 -188 6 -177
-93 -177 -112 1 -220 74 -253 173 -15 44 -17 151 -3 196 3 9 -17 18 -68 31
-67 16 -123 42 -123 57 0 3 3 3 7 0 3 -4 13 -1 21 6 13 10 14 9 7 -2 -6 -11
-4 -13 11 -6 10 4 34 10 51 13 20 2 30 8 26 15 -4 7 0 8 11 4 10 -4 25 -3 34
2 10 5 39 11 65 14 27 3 51 7 54 10 4 5 88 2 88 -2z m515 -1331 l0 -120 65 0
65 0 0 120 0 120 65 0 65 0 0 -295 0 -295 -65 0 -64 0 -3 128 -3 127 -62 3
-62 3 -3 -133 -3 -133 -45 0 -45 0 -3 298 -2 297 50 0 50 0 0 -120z m-1390
-910 c20 -5 50 -20 67 -33 l32 -23 -29 -27 -28 -27 -44 20 c-53 24 -95 25
-148 4 -33 -13 -46 -27 -67 -67 -24 -48 -25 -54 -13 -104 25 -112 122 -161
226 -114 l42 19 21 -29 c11 -15 21 -32 21 -36 0 -20 -97 -48 -165 -48 -64 0
-75 3 -128 38 -65 42 -94 90 -104 176 -12 102 54 215 142 246 47 17 126 19
175 5z m1490 -136 c0 -50 1 -54 16 -40 20 21 53 20 76 -1 24 -22 27 -173 3
-173 -11 0 -15 13 -15 53 0 76 -8 97 -36 97 -31 0 -44 -27 -44 -94 0 -53 -1
-56 -26 -56 l-25 0 3 135 c3 132 3 135 26 135 20 0 22 -5 22 -56z m600 0 c0
-55 0 -55 22 -40 30 21 54 20 78 -4 16 -16 20 -33 20 -95 0 -68 -2 -75 -20
-75 -18 0 -20 7 -20 58 0 35 -6 66 -14 78 -14 19 -15 19 -43 -2 -23 -18 -29
-30 -33 -78 -9 -105 -25 -61 -28 79 -2 130 -2 135 18 135 18 0 20 -6 20 -56z
m650 -84 c0 -114 -3 -140 -14 -140 -8 0 -16 5 -18 10 -2 7 -14 6 -35 -2 -29
-11 -36 -10 -60 8 -43 32 -57 67 -43 109 16 49 56 78 97 72 l33 -6 0 45 c0 37
3 44 20 44 19 0 20 -7 20 -140z m-1359 120 c11 -6 19 -21 19 -35 0 -20 -5 -25
-24 -25 -16 0 -23 5 -22 17 1 22 -23 24 -46 5 -24 -20 -23 -29 10 -47 84 -48
87 -51 90 -89 6 -67 -52 -101 -122 -72 -42 17 -49 46 -12 46 14 0 28 -4 31
-10 11 -17 44 -11 55 11 17 30 7 43 -40 59 -53 18 -74 48 -66 95 4 19 14 39
24 44 22 14 78 14 103 1z m-621 -35 c0 -21 5 -25 31 -25 27 0 30 -3 27 -27 -2
-19 -8 -27 -18 -25 -8 2 -19 4 -25 5 -6 1 -10 -22 -10 -53 0 -53 1 -55 28 -58
19 -2 27 -9 27 -23 0 -14 -7 -19 -27 -19 -16 0 -34 4 -41 9 -18 11 -32 77 -25
113 5 24 2 28 -16 28 -25 0 -30 37 -5 47 11 4 14 13 10 29 -6 21 -3 24 19 24
20 0 25 -5 25 -25z m2178 -31 c12 -8 22 -22 22 -30 0 -19 -26 -18 -34 1 -7 18
-59 20 -74 2 -16 -19 0 -36 48 -50 30 -9 50 -22 60 -39 13 -25 13 -29 -9 -52
-18 -19 -35 -26 -61 -26 -39 0 -80 23 -80 46 0 19 20 18 35 -2 13 -19 61 -22
78 -5 18 18 -4 44 -44 54 -66 17 -87 59 -49 97 24 24 77 26 108 4z m-2720 -3
c1 0 -2 -10 -8 -20 -5 -11 -23 -22 -40 -26 -30 -6 -30 -8 -30 -71 0 -57 -2
-64 -20 -64 -18 0 -20 7 -20 88 0 49 2 91 5 94 5 4 104 4 113 -1z m57 1 c6 -4
19 -29 30 -56 11 -27 25 -51 31 -53 6 -2 19 21 29 52 17 50 22 55 48 55 l29 0
-21 -36 c-12 -20 -40 -83 -62 -140 -23 -57 -44 -104 -48 -105 -3 0 -14 -2 -23
-4 -22 -4 -22 -1 1 60 l19 50 -25 65 c-13 36 -31 75 -38 87 -8 12 -15 25 -15
28 0 8 33 6 45 -3z m356 -23 c75 -80 -5 -200 -104 -155 -13 6 -18 5 -17 -5 1
-8 2 -36 1 -62 -1 -44 -3 -48 -23 -45 -13 2 -22 6 -20 11 1 4 2 68 2 142 l0
134 45 -1 c25 0 49 2 52 6 14 13 36 5 64 -25z m400 2 c23 -24 29 -38 29 -74 0
-38 -5 -49 -31 -71 -81 -69 -202 8 -170 107 23 69 119 90 172 38z m752 -3 c9
-11 17 -31 17 -44 0 -25 -13 -29 -82 -24 -34 2 -44 -16 -22 -41 18 -20 49 -25
59 -9 9 15 35 12 35 -5 0 -8 -14 -22 -31 -30 -28 -15 -33 -15 -67 2 -30 15
-39 25 -46 59 -20 96 78 162 137 92z m192 9 c20 -16 28 -35 32 -69 5 -42 3
-50 -25 -78 -32 -32 -51 -36 -83 -20 -18 10 -19 7 -19 -45 0 -47 -3 -55 -19
-55 -24 0 -30 33 -31 172 l0 107 37 4 c21 2 48 4 60 5 12 1 34 -8 48 -21z
m575 8 c0 -8 -16 -21 -35 -29 -39 -17 -50 -45 -42 -106 5 -43 2 -51 -19 -43
-11 4 -14 27 -14 95 0 89 0 90 23 85 12 -4 29 -2 37 3 23 15 50 12 50 -5z
m-172 -7 c10 -13 15 -39 13 -70 -1 -15 -11 -18 -52 -18 -41 0 -50 -3 -47 -16
5 -28 35 -41 58 -26 26 16 40 15 40 -2 0 -20 -39 -46 -68 -46 -13 0 -37 13
-53 29 -61 61 -24 161 59 161 22 0 44 -6 50 -12z"/>
<path d="M6295 7050 c4 -6 11 -8 16 -5 14 9 11 15 -7 15 -8 0 -12 -5 -9 -10z"/>
<path d="M7303 3549 c-18 -18 -16 -74 2 -89 15 -13 55 -5 67 14 13 19 9 76 -4
76 -7 0 -22 3 -33 6 -11 3 -26 -1 -32 -7z"/>
<path d="M5196 3544 c-18 -46 8 -94 51 -94 28 0 46 25 46 61 0 37 -4 41 -52
45 -28 2 -41 -1 -45 -12z"/>
<path d="M5596 3548 c-35 -49 -11 -102 44 -96 72 7 75 109 3 116 -23 2 -35 -3
-47 -20z"/>
<path d="M6382 3564 c-30 -21 -28 -34 6 -34 42 0 57 14 37 34 -20 19 -16 19
-43 0z"/>
<path d="M6572 3558 c-7 -7 -12 -28 -12 -48 0 -41 14 -60 45 -60 30 0 45 19
45 56 0 48 -50 80 -78 52z"/>
<path d="M6974 3553 c-17 -17 -16 -18 20 -21 45 -4 54 2 36 23 -16 20 -35 19
-56 -2z"/>
</g>
</svg>
